<svg xmlns="http://www.w3.org/2000/svg" width="17.071" height="17.071" viewBox="0 0 17.071 17.071"><defs><style>.a{fill:#b2b2b2;}</style></defs><path class="a" d="M7.17,13.86l.372-.314V22.36a.711.711,0,0,0,.711.711H20.817a.711.711,0,0,0,.711-.711V13.545l.372.314a.711.711,0,0,0,.918-1.087L19.4,9.89V7.182a.711.711,0,1,0-1.423,0V8.689L14.994,6.168a.711.711,0,0,0-.918,0L6.252,12.773A.711.711,0,1,0,7.17,13.86Zm5.776,7.789V16.513h3.18v5.136Zm1.59-14.007,5.57,4.7v9.3H17.548V15.8a.711.711,0,0,0-.711-.711h-4.6a.711.711,0,0,0-.711.711v5.847H8.965v-9.3Z" transform="translate(-6 -6)"/></svg>