<svg xmlns="http://www.w3.org/2000/svg" width="24.934" height="24.934" viewBox="0 0 24.934 24.934"><defs><style>.a{fill:#fff}</style></defs><path d="M17.506,0H7.428A7.436,7.436,0,0,0,0,7.428V17.506a7.436,7.436,0,0,0,7.428,7.428H17.506a7.436,7.436,0,0,0,7.428-7.428V7.428A7.436,7.436,0,0,0,17.506,0Zm4.92,17.506a4.92,4.92,0,0,1-4.92,4.92H7.428a4.92,4.92,0,0,1-4.92-4.92V7.428a4.92,4.92,0,0,1,4.92-4.92H17.506a4.92,4.92,0,0,1,4.92,4.92V17.506Z" class="a" transform="translate(0)"/><path d="M139.449,133a6.449,6.449,0,1,0,6.449,6.449A6.456,6.456,0,0,0,139.449,133Zm0,10.389a3.94,3.94,0,1,1,3.94-3.94A3.94,3.94,0,0,1,139.449,143.389Z" class="a" transform="translate(-126.982 -126.982)"/><ellipse cx="1.545" cy="1.545" class="a" rx="1.545" ry="1.545" transform="translate(17.383 4.521)"/></svg>