<svg xmlns="http://www.w3.org/2000/svg" width="26.365" height="21.416" viewBox="0 0 26.365 21.416"><defs><style>.a{fill:#fff}</style></defs><g><path d="M26.366,59.975a10.8,10.8,0,0,1-3.106.852,5.431,5.431,0,0,0,2.377-2.99A10.9,10.9,0,0,1,22.2,59.149a5.413,5.413,0,0,0-9.216,4.931A15.355,15.355,0,0,1,1.838,58.429a5.415,5.415,0,0,0,1.674,7.219,5.409,5.409,0,0,1-2.45-.679v.068a5.414,5.414,0,0,0,4.338,5.3,5.478,5.478,0,0,1-1.425.189,5.19,5.19,0,0,1-1.018-.1,5.411,5.411,0,0,0,5.051,3.756A10.851,10.851,0,0,1,1.291,76.5,11.494,11.494,0,0,1,0,76.423a15.288,15.288,0,0,0,8.29,2.433A15.282,15.282,0,0,0,23.679,63.469l-.018-.7A10.8,10.8,0,0,0,26.366,59.975Z" class="a" transform="translate(0 0) translate(-0.001 -57.441)"/></g></svg>