<svg width="20" height="20" viewBox="0 0 90 37" fill="none" xmlns="http://www.w3.org/2000/svg">
<path d="M80 0C78.2257 0 76.2503 0.22597 74.4375 1.15L74.3438 1.2L59.125 8.65C58.4071 7.27038 57.2622 6.05216 55.625 5.2C55.2581 5.00494 54.842 4.8769 54.4062 4.825L24.4062 1.625C24.2717 1.60931 24.136 1.60096 24 1.6C13.9017 1.6 6.92493 4.81687 0.84375 9.85C0.308148 10.2929 0.00603955 10.8837 0 11.5V34.4C0.00398829 34.8297 0.152108 35.2507 0.428895 35.619C0.705682 35.9873 1.10098 36.2893 1.57352 36.4937C2.04606 36.698 2.57851 36.7971 3.11528 36.7807C3.65204 36.7642 4.17343 36.6327 4.625 36.4C10.5427 33.32 18.2455 31.9505 23.9688 32C31.0443 32.0612 38.3165 34.1557 45.875 36.625C46.3511 36.7779 46.8682 36.8307 47.377 36.7782C47.8858 36.7256 48.3693 36.5696 48.7812 36.325L86.8125 13.825C86.947 13.742 87.0725 13.65 87.1875 13.55C88.9177 12.1141 90 10.1421 90 8C90 3.61015 85.4873 0 80 0ZM80 4.8C82.2447 4.8 84 6.20426 84 8C84 8.83044 83.6014 9.55869 82.9688 10.125L46.5 31.7C39.3135 29.3882 31.9199 27.2682 24.0312 27.2C18.5369 27.1525 12.0465 28.1681 6 30.425V12.55C11.097 8.50626 15.7814 6.417 23.9062 6.4L52.6562 9.475C53.4247 10.0172 54 10.8862 54 12C54 13.8143 52.2679 15.2 50 15.2H28C27.6025 15.1955 27.2078 15.2543 26.8389 15.3729C26.47 15.4914 26.1342 15.6675 25.8511 15.8908C25.568 16.1141 25.3432 16.3802 25.1897 16.6736C25.0363 16.9671 24.9573 17.2819 24.9573 17.6C24.9573 17.9181 25.0363 18.2329 25.1897 18.5264C25.3432 18.8198 25.568 19.0859 25.8511 19.3092C26.1342 19.5325 26.47 19.7086 26.8389 19.8271C27.2078 19.9457 27.6025 20.0045 28 20H50C54.5692 20 58.2933 17.4466 59.4688 14.075C59.5002 14.0671 59.5314 14.0587 59.5625 14.05L77.5625 5.25C77.5941 5.2338 77.6254 5.21714 77.6562 5.2C78.0204 5.0086 78.9719 4.8 80 4.8Z" fill="#56b2b8"/>
</svg>
